<?xml version="1.0" standalone="no"?>
<!DOCTYPE svg PUBLIC "-//W3C//DTD SVG 1.1//EN" "http://www.w3.org/Graphics/SVG/1.1/DTD/svg11.dtd" >
<svg xmlns="http://www.w3.org/2000/svg" xmlns:xlink="http://www.w3.org/1999/xlink" version="1.1">
<metadata></metadata>
<defs>
<font id="badaboom_bbregular" horiz-adv-x="495" >
<font-face units-per-em="1024" ascent="819" descent="-205" />
<missing-glyph horiz-adv-x="198" />
<glyph unicode="&#xd;" horiz-adv-x="198" />
<glyph unicode=" "  horiz-adv-x="198" />
<glyph unicode="&#x09;" horiz-adv-x="198" />
<glyph unicode="&#xa0;" horiz-adv-x="198" />
<glyph unicode="!" horiz-adv-x="300" d="M95 163q35 5 62 -10q32 -16 32 -50q0 -46 -49 -84q-38 -30 -83 -36q-36 -5 -62 8q-31 16 -31 50q0 46 47 85q38 31 84 37zM208 785l209 -35q-83 -149 -122 -233q-53 -115 -94 -249l-139 6z" />
<glyph unicode="&#x22;" d="M315 807q-64 -174 -89 -316l-193 -30l97 332zM571 807q-64 -174 -89 -316l-193 -30l97 332z" />
<glyph unicode="#" horiz-adv-x="688" d="M197 706l172 32q-26 -97 -48 -196l95 6l28 158l172 32q-25 -90 -45 -181l131 8l-26 -151q-23 -1 -69 -2.5t-68 -2.5q-10 -44 -17 -86l127 8l-17 -151l-135 -6q-5 -33 -9 -65l-8 -66l-159 -44l29 168q-34 -2 -101 -7q-10 -59 -16 -117l-159 -44l26 149q-25 -3 -48 -5 l-49 -4l-10 152l133 8l15 83q-47 -3 -96 -9l-2 152l124 8zM289 394q-5 -29 -17 -86l103 6l16 87q-34 -2 -102 -7z" />
<glyph unicode="$" horiz-adv-x="470" d="M465 529q-32 -12 -75 -29l-76 -29q0 47 -26 47q-37 0 -74 -42q-26 -31 -21 -60q3 -19 37 -19q20 0 60 7t60 7q99 0 109 -78q12 -95 -90 -212q0 -50 2 -98l3 -98l-103 -58l-2 167q-29 -20 -55 -29l2 -66q1 -33 3 -66l-103 -58l-1 169q-51 0 -97 25q25 60 80 177 q32 -22 68 -22q17 0 34 5q31 8 58 23q40 22 40 45q0 25 -41 25q-27 0 -80.5 -11.5t-81.5 -11.5q-89 0 -90 76q-2 91 104 229l-2 241l113 39q-3 -77 -5 -165q22 19 48 38l-1 139l113 40l-3 -129q51 6 80 -42q18 -31 18 -96q0 -35 -5 -80z" />
<glyph unicode="%" horiz-adv-x="779" d="M599 747l152 -49q-129 -154 -236 -289q34 9 64 11q94 6 150 -44q43 -39 43 -95q0 -16 -4 -34q-18 -84 -102 -144q-78 -56 -168 -62q-63 -4 -112 18q-57 27 -74 82q-55 -74 -120 -169l-150 28l250 336q-45 -18 -90 -21q-97 -6 -151 44q-43 39 -43 94q0 17 4 35 q18 84 102 144q78 56 168 62q67 5 119 -23q60 -31 72 -93zM535 237q-29 -3 -55 -23t-26 -48q0 -22 19 -33q16 -9 38 -7q30 3 55 22.5t25 47.5q0 21 -17.5 32t-38.5 9zM238 511q-29 -2 -55 -22.5t-26 -48.5q0 -44 58 -40q29 2 54 22t25 48q0 20 -17.5 31.5t-38.5 9.5z" />
<glyph unicode="&#x26;" horiz-adv-x="579" d="M496 347q9 -19 14 -44q5 -24 0 -57q-17 -103 -110 -179q-90 -72 -197 -80q-93 -7 -161 40q-75 51 -75 142q0 83 56 156q43 56 104 92q-66 43 -66 114q0 95 90 167q77 61 171 67q59 4 109 -17q56 -24 80 -73l-168 -118q-15 29 -55 25q-25 -2 -48.5 -19t-26.5 -41 q-4 -26 14 -40t45 -11q8 1 49 5l104 10q75 6 155 17l12 -150q-16 0 -96 -6zM315 334l-54 -4q-40 -2 -74 -28q-37 -27 -43 -65q-6 -39 22 -60t67 -18q41 3 76.5 29t40.5 64q3 20 -8 45t-27 37z" />
<glyph unicode="'" horiz-adv-x="247" d="M324 807q-64 -174 -89 -316l-193 -30l97 332z" />
<glyph unicode="(" horiz-adv-x="356" d="M424 774q-214 -215 -268 -422q-11 -44 -11 -85q0 -156 162 -283l-76 -72q-37 -36 -75 -73q-179 184 -179 395q0 50 11 103q53 269 293 567q48 -43 143 -130z" />
<glyph unicode=")" horiz-adv-x="390" d="M-53 -31q213 213 267 421q11 43 11 85q0 156 -160 284q37 36 75 73l75 72q179 -185 179 -396q0 -51 -10 -102q-53 -270 -294 -567z" />
<glyph unicode="*" horiz-adv-x="416" d="M450 631q-56 -33 -116 -71l89 -64l-82 -88q-10 7 -60 46q-5 -42 -8 -84l-113 -20l15 109q-14 -10 -42.5 -29t-42.5 -29l-57 82l111 70q-41 28 -88 59l69 100l78 -57l14 100l108 1l-9 -50q-4 -25 -7 -49l103 65z" />
<glyph unicode="+" horiz-adv-x="374" d="M356 261q-53 -3 -109 -9q-7 -47 -7 -91l-133 -21l14 95q-39 -6 -82 -15l-8 153l111 13l15 95l143 16q-18 -60 -25 -95l87 10z" />
<glyph unicode="," horiz-adv-x="256" d="M223 169q-87 -173 -131 -309l-189 -4l139 324z" />
<glyph unicode="-" horiz-adv-x="386" d="M360 261q-181 -14 -315 -41l-10 153l331 39z" />
<glyph unicode="." horiz-adv-x="294" d="M153 164q30 0 52.5 -16t22.5 -45q0 -46 -47.5 -83.5t-103.5 -37.5q-30 0 -51 14q-24 17 -24 45q0 46 47.5 84.5t103.5 38.5z" />
<glyph unicode="/" horiz-adv-x="542" d="M478 747l151 -49q-338 -403 -558 -726l-150 28z" />
<glyph unicode="0" d="M355 782q106 0 150 -118q23 -61 23 -134q0 -70 -21 -152q-37 -140 -128 -258q-111 -144 -235 -144q-107 0 -152 118q-22 58 -22 130q0 71 22 154q37 141 127 259q111 145 236 145zM319 534q-55 0 -112 -90q-46 -71 -64 -139q-9 -36 -9 -65q0 -41 20 -67q23 -29 64 -29 q56 0 101 59q36 47 52 111q19 75 8 148q-12 72 -60 72z" />
<glyph unicode="1" horiz-adv-x="346" d="M396 738q-103 -391 -134 -695l-168 -44l88 517l-131 -20l27 190z" />
<glyph unicode="2" horiz-adv-x="482" d="M45 461q47 222 176 278q36 16 73 16q75 0 134 -53q76 -67 76 -160q0 -88 -77 -173q-56 -63 -168 -113q-85 -38 -107 -75l260 17l-22 -187l-438 -23q-2 22 -2 43q0 98 40 169q48 87 214 175q91 48 108 95q8 24 8 43q0 20 -11.5 35.5t-31.5 15.5q-43 0 -46 -70z" />
<glyph unicode="3" horiz-adv-x="470" d="M441 521q-63 -2 -165 -88q188 -29 187 -147q0 -102 -122.5 -204t-233.5 -93q-128 11 -137 188l185 26q-4 -12 -4 -21q0 -17 17 -17q7 0 16 3q43 12 66 42q9 11 9 22q0 45 -97 45q-53 0 -141 -12l34 168q91 60 174 117q-85 -7 -168 -18l12 190l403 23q-13 -74 -35 -224z " />
<glyph unicode="4" horiz-adv-x="456" d="M293 644l170 30q-50 -200 -73 -317l48 3l-21 -187h-30q-19 -1 -29 -1q-11 -67 -17 -133l-158 -40l28 166q-97 -6 -196 -18l-40 85l135 483l189 28q-83 -215 -141 -400l85 5z" />
<glyph unicode="5" horiz-adv-x="452" d="M442 560q-109 -4 -227 -10q-4 -16 -10 -46q233 -4 242 -140q5 -62 -37 -135q-33 -60 -87 -113q-116 -115 -216 -115q-67 0 -100 70q-18 38 -18 106q0 39 5 86l178 -12q-7 -22 -7 -36q0 -19 15 -19q5 0 11 2q39 12 64 50q12 19 12 37q0 19 -13 38q-18 25 -96 25 q-35 0 -81 -5l-62 -13q25 148 77 392l370 25z" />
<glyph unicode="6" horiz-adv-x="480" d="M327 755q104 0 153 -113l-119 -148q-10 15 -21 30q-14 18 -27 18q-62 0 -129 -126q61 21 115 21q48 0 90 -17q69 -27 69 -99q0 -21 -6 -46q-24 -97 -108 -181q-91 -91 -186 -91q-103 0 -151 110q-28 64 -28 144q0 57 14 122q29 133 113 243q101 133 221 133zM245 175 q53 23 53 55q0 16 -9.5 30t-24.5 14q4 0 -69 -17q-30 -7 -58 -17q9 -76 61 -76q20 0 47 11z" />
<glyph unicode="7" horiz-adv-x="368" d="M467 759l-295 -743l-163 -17l204 539l-179 -15l39 189z" />
<glyph unicode="8" horiz-adv-x="526" d="M419 440q88 -50 88 -150q0 -21 -5 -44q-22 -103 -119 -179q-93 -72 -202 -80q-112 -8 -177 56q-48 47 -48 115q0 87 64 167q45 56 110 92q-61 40 -61 106q0 17 4 36q18 84 102 144q79 56 169 62q94 6 150 -45q44 -39 44 -95q0 -16 -4 -34q-19 -88 -115 -151zM300 582 q-29 -2 -55 -22.5t-26 -48.5q0 -44 57 -40q30 2 55.5 21.5t25.5 48.5q0 20 -18 31.5t-39 9.5zM257 330q-44 -3 -82 -33q-40 -33 -40 -76q0 -33 28 -50q24 -14 58 -12q45 3 82 33q41 33 41 75q0 33 -26.5 49t-60.5 14z" />
<glyph unicode="9" horiz-adv-x="518" d="M240 278q-114 -8 -177 56q-48 48 -48 116q0 22 5 47q22 104 120 179q93 73 202 81q111 8 176 -56q49 -49 49 -117q0 -71 -46 -140q-127 -241 -206 -437l-156 29l120 247q-11 -3 -39 -5zM266 411q36 3 67.5 28t31.5 59q0 26 -21.5 39.5t-48.5 11.5q-36 -3 -66 -27 q-34 -26 -34 -61q0 -27 23 -40q20 -12 48 -10z" />
<glyph unicode=":" horiz-adv-x="240" d="M133 290q30 0 52.5 -16t22.5 -45q0 -46 -47.5 -84t-103.5 -38q-30 0 -51 15q-24 16 -24 45q0 46 47.5 84.5t103.5 38.5zM191 561q30 0 52.5 -16t22.5 -45q0 -46 -47.5 -84t-103.5 -38q-30 0 -51 15q-24 16 -24 45q0 46 47.5 84.5t103.5 38.5z" />
<glyph unicode=";" horiz-adv-x="260" d="M189 461q30 0 51 -15q24 -18 24 -47q0 -45 -47.5 -83t-103.5 -38q-30 0 -51 15q-24 16 -24 45q0 45 47.5 84t103.5 39zM204 169q-87 -173 -131 -309l-189 -4l139 324z" />
<glyph unicode="=" horiz-adv-x="380" d="M372 380q-180 -14 -316 -41l-9 152l332 40zM345 161q-160 -10 -316 -40l-9 152l331 40z" />
<glyph unicode="?" horiz-adv-x="434" d="M176 163q35 5 64.5 -10.5t29.5 -49.5q0 -46 -48 -84q-39 -30 -84 -36q-35 -5 -62 8q-32 16 -32 50q0 46 48 85q38 31 84 37zM103 707q156 47 256 47q136 0 135 -94q-1 -119 -130 -237q-71 -65 -230 -163q3 19 -10 65.5t-10 66.5q61 23 117 56q82 49 86 88q2 27 -51 30 t-172 -37z" />
<glyph unicode="@" horiz-adv-x="1025" d="M533 489q46 8 91 0l1 6q22 3 42 3q12 0 36 -2.5t35 -2.5q23 0 47 4q-24 -94 -44 -175l-43 -175q127 91 160 169q18 42 18 78q0 95 -116 151q-94 45 -209 45q-187 0 -289 -101q-77 -77 -77 -197q0 -88 52 -204l-201 -105q-39 138 -39 248q0 177 89 301q78 107 214 163 q122 51 266 51q176 0 314 -70q169 -86 169 -225q0 -101 -102 -253q-85 -126 -287 -207l-107 77l14 83q-78 -45 -164 -45q-60 0 -101 29q-48 34 -48 91q0 95 101 179q80 67 178 84zM489 306q-28 -5 -55 -28t-27 -50q0 -35 43 -35q35 0 67 26q25 19 30 43t-14.5 36t-43.5 8z " />
<glyph unicode="A" horiz-adv-x="408" d="M-119 -13q147 375 238 723l304 51q-52 -303 -47 -717l-212 -49l15 125l-67 -13l-21 -88zM195 254l46 378h-1l-94 -387z" />
<glyph unicode="B" horiz-adv-x="451" d="M71 703q32 5 120 27q76 18 122 23q18 1 35 1q132 0 131 -94q0 -133 -164 -266q103 7 119 -58q3 -14 3 -29q0 -75 -72 -152q-55 -59 -136 -104q-97 -54 -223 -54q-20 0 -40 1q39 205 86 551q14 98 19 154zM177 287q-8 -38 -17 -103q141 43 141 98q0 20 -35 20 q-31 0 -89 -15zM232 555q-8 -33 -15 -66l-14 -66q73 45 104 104q7 13 7 21q0 17 -26 17q-20 0 -56 -10z" />
<glyph unicode="C" horiz-adv-x="404" d="M325 755q104 0 153 -113l-113 -124q-23 24 -53 24q-53 0 -110 -91q-47 -75 -61 -140q-7 -31 -7 -56q0 -67 49 -92q16 -8 34 -8q52 0 109 77l32 -119q-99 -110 -201 -110q-104 0 -152 110q-29 64 -29 143q0 58 15 123q30 133 114 243q101 133 220 133z" />
<glyph unicode="D" horiz-adv-x="428" d="M71 707q115 38 195 38q90 0 137 -47q65 -67 65 -163q0 -35 -9 -74q-39 -176 -184 -307.5t-323 -154.5q2 22 21 131l80 460q17 103 18 117zM214 542q-46 -196 -70 -371q60 57 107 132q58 92 58 158q0 85 -95 81z" />
<glyph unicode="E" horiz-adv-x="369" d="M212 557q-8 -29 -14 -57l-11 -55l160 34l-9 -138q-114 -20 -179 -35q-4 -20 -7 -40l-7 -39l186 27l-13 -186q-144 -12 -365 -69l119 717l333 48l-13 -185q-98 -9 -180 -22z" />
<glyph unicode="F" horiz-adv-x="370" d="M213 557q-7 -28 -12 -55l-12 -54l175 37l-9 -140q-103 -16 -194 -37q-24 -134 -38 -265l-171 -44l117 717l342 48l-12 -185q-100 -9 -186 -22z" />
<glyph unicode="G" horiz-adv-x="489" d="M142 -24q-106 0 -150 114q-23 57 -23 128q0 67 21 147q35 137 125 251q109 139 232 139q107 0 151 -118l-111 -119q-18 27 -53 27q-68 0 -128 -94q-45 -71 -67 -157q-9 -34 -9 -61q0 -41 21 -66q23 -28 64 -28q47 0 87 43q32 34 52 86q-74 -15 -137 -31l32 148l265 56 q2 -65 -28 -149q-27 -74 -67 -136q-117 -180 -277 -180z" />
<glyph unicode="H" horiz-adv-x="442" d="M82 706l185 32q-50 -191 -81 -348l83 17l51 299l185 32q-106 -409 -134 -695l-172 -44l46 272q-28 -6 -85 -18q-19 -123 -27 -210l-172 -44z" />
<glyph unicode="I" horiz-adv-x="223" d="M102 706l172 32q-104 -401 -136 -695l-159 -44z" />
<glyph unicode="J" horiz-adv-x="333" d="M213 706l170 32q-103 -410 -134 -695l-154 -43q-4 0 -84 17q-32 6 -58 12l-32 7l87 176l116 -19z" />
<glyph unicode="K" horiz-adv-x="440" d="M80 706l172 32q-24 -88 -34 -139q87 76 159 146l126 -82l-197 -175l110 -407l-180 -96l-70 377q-31 -161 -50 -319l-158 -44z" />
<glyph unicode="L" horiz-adv-x="334" d="M83 706l172 32q-72 -277 -111 -511l176 27l-15 -186q-136 -12 -345 -69z" />
<glyph unicode="M" horiz-adv-x="643" d="M-88 -6q135 342 206 696l239 39l-34 -367l93 339l230 40q-41 -326 -41 -588q0 -52 1 -103l-205 -36l36 438l-131 -485l-110 -15l66 616l-142 -546z" />
<glyph unicode="N" horiz-adv-x="466" d="M92 703l173 35q-2 -31 -2 -88q0 -136 9 -239q5 -59 15 -95l68 390l172 32q-104 -401 -136 -695l-158 -44q-1 2 -13 35l-52 148q-13 36 -15 46q-21 -118 -33 -229l-160 -48z" />
<glyph unicode="O" d="M355 782q106 0 150 -118q23 -61 23 -134q0 -70 -21 -152q-37 -140 -128 -258q-111 -144 -235 -144q-107 0 -152 118q-22 58 -22 130q0 71 22 154q37 141 127 259q111 145 236 145zM319 534q-55 0 -112 -90q-46 -71 -64 -139q-9 -36 -9 -65q0 -41 20 -67q23 -29 64 -29 q56 0 101 59q36 47 52 111q19 75 8 148q-12 72 -60 72z" />
<glyph unicode="P" horiz-adv-x="368" d="M77 707q155 47 254 47q135 0 133 -94q-3 -189 -318 -391q-22 -122 -32 -226l-159 -44q3 22 24 134l44 237q59 327 54 337zM203 547q-7 -28 -13 -56l-11 -55q93 46 120 97q4 8 4 13q0 17 -25 17q-24 0 -75 -16z" />
<glyph unicode="Q" horiz-adv-x="526" d="M360 782q105 0 150 -118q23 -61 23 -133q0 -176 -104 -348q5 -42 38 -172l-144 -91l-22 115q-80 -59 -152 -59q-107 0 -151 118q-23 60 -23 132q0 70 21 152q37 140 128 259q112 145 236 145zM246 319l143 75q3 52 -6 95q-15 64 -55 64q-54 0 -114 -99q-48 -79 -66 -149 q-9 -36 -9 -65q0 -41 20 -67q23 -29 64 -29q26 0 53 16z" />
<glyph unicode="R" horiz-adv-x="408" d="M76 707q157 47 257 47q135 0 134 -94q-1 -135 -170 -271q14 -38 116 -239q-52 -48 -157 -141l-107 276h-1v0q-24 -131 -36 -242l-158 -44q2 22 22 133zM202 549q-9 -34 -16 -68l-14 -68q35 18 69 47q39 34 52 65q5 9 5 17q0 22 -29 22q-23 0 -67 -15z" />
<glyph unicode="S" horiz-adv-x="445" d="M438 529q-32 -12 -76 -29l-75 -29q0 47 -26 47q-37 0 -74 -42q-26 -31 -22 -60q3 -19 38 -19q19 0 50 6q43 9 76 9q84 0 98 -58q4 -18 4 -38q0 -64 -48 -138q-62 -97 -174 -163q-59 -35 -116 -35q-52 0 -102 29q25 60 80 177q32 -22 68 -22q16 0 33 5q31 8 59 23 q40 22 40 45q0 25 -41 25q-28 0 -81.5 -11.5t-81.5 -11.5q-37 0 -57 14q-39 26 -32 81q13 111 143 257q133 150 229 157q93 6 93 -140q0 -35 -5 -79z" />
<glyph unicode="T" horiz-adv-x="365" d="M450 748l-6 -186q-70 -4 -133 -10q-66 -277 -89 -509l-169 -44l92 532q-27 -4 -54 -9l-53 -10l-12 187z" />
<glyph unicode="U" horiz-adv-x="435" d="M88 706l171 32q-69 -262 -102 -470l95 40l70 398l171 32q-104 -410 -135 -695l-160 -44l20 111q-84 -37 -254 -111z" />
<glyph unicode="V" horiz-adv-x="398" d="M496 738q-119 -326 -213 -699l-266 -48q25 142 31 346l6 348l200 45l-86 -638h1l146 613z" />
<glyph unicode="W" horiz-adv-x="590" d="M686 744q-135 -358 -201 -698l-224 -38l37 367l-93 -340l-213 -39q48 376 47 690l190 36l-39 -438l130 486l102 15l-69 -617l139 546z" />
<glyph unicode="X" horiz-adv-x="405" d="M366 70l-159 -99l-18 97q-9 49 -18 99l-48 -87q-24 -44 -47 -86l-174 15l226 357q-39 163 -81 291l141 106l55 -215l130 204l130 -46q-106 -152 -214 -335z" />
<glyph unicode="Y" horiz-adv-x="387" d="M339 721l161 -28q-216 -379 -342 -686l-154 10l106 223l-84 402l195 90q-3 -46 -4 -115t7 -138z" />
<glyph unicode="Z" horiz-adv-x="487" d="M510 544q-42 -42 -166 -180q-42 -45 -83 -90q-54 -59 -76 -92l236 16l-21 -187q-259 -7 -432 -31l1 185q42 49 167 183l173 185q-86 -7 -185 -23l7 189l405 32q-9 -62 -26 -187z" />
<glyph unicode="\" horiz-adv-x="504" d="M214 747l240 -747l-162 -28q-84 319 -250 726z" />
<glyph unicode="a" horiz-adv-x="408" d="M-119 -13q147 375 238 723l304 51q-52 -303 -47 -717l-212 -49l15 125l-67 -13l-21 -88zM195 254l46 378h-1l-94 -387z" />
<glyph unicode="b" horiz-adv-x="451" d="M71 703q32 5 120 27q76 18 122 23q18 1 35 1q132 0 131 -94q0 -133 -164 -266q103 7 119 -58q3 -14 3 -29q0 -75 -72 -152q-55 -59 -136 -104q-97 -54 -223 -54q-20 0 -40 1q39 205 86 551q14 98 19 154zM177 287q-8 -38 -17 -103q141 43 141 98q0 20 -35 20 q-31 0 -89 -15zM232 555q-8 -33 -15 -66l-14 -66q73 45 104 104q7 13 7 21q0 17 -26 17q-20 0 -56 -10z" />
<glyph unicode="c" horiz-adv-x="404" d="M325 755q104 0 153 -113l-113 -124q-23 24 -53 24q-53 0 -110 -91q-47 -75 -61 -140q-7 -31 -7 -56q0 -67 49 -92q16 -8 34 -8q52 0 109 77l32 -119q-99 -110 -201 -110q-104 0 -152 110q-29 64 -29 143q0 58 15 123q30 133 114 243q101 133 220 133z" />
<glyph unicode="d" horiz-adv-x="428" d="M71 707q115 38 195 38q90 0 137 -47q65 -67 65 -163q0 -35 -9 -74q-39 -176 -184 -307.5t-323 -154.5q2 22 21 131l80 460q17 103 18 117zM214 542q-46 -196 -70 -371q60 57 107 132q58 92 58 158q0 85 -95 81z" />
<glyph unicode="e" horiz-adv-x="369" d="M212 557q-8 -29 -14 -57l-11 -55l160 34l-9 -138q-114 -20 -179 -35q-4 -20 -7 -40l-7 -39l186 27l-13 -186q-144 -12 -365 -69l119 717l333 48l-13 -185q-98 -9 -180 -22z" />
<glyph unicode="f" horiz-adv-x="370" d="M213 557q-7 -28 -12 -55l-12 -54l175 37l-9 -140q-103 -16 -194 -37q-24 -134 -38 -265l-171 -44l117 717l342 48l-12 -185q-100 -9 -186 -22z" />
<glyph unicode="g" horiz-adv-x="489" d="M142 -24q-106 0 -150 114q-23 57 -23 128q0 67 21 147q35 137 125 251q109 139 232 139q107 0 151 -118l-111 -119q-18 27 -53 27q-68 0 -128 -94q-45 -71 -67 -157q-9 -34 -9 -61q0 -41 21 -66q23 -28 64 -28q47 0 87 43q32 34 52 86q-74 -15 -137 -31l32 148l265 56 q2 -65 -28 -149q-27 -74 -67 -136q-117 -180 -277 -180z" />
<glyph unicode="h" horiz-adv-x="442" d="M82 706l185 32q-50 -191 -81 -348l83 17l51 299l185 32q-106 -409 -134 -695l-172 -44l46 272q-28 -6 -85 -18q-19 -123 -27 -210l-172 -44z" />
<glyph unicode="i" horiz-adv-x="223" d="M102 706l172 32q-104 -401 -136 -695l-159 -44z" />
<glyph unicode="j" horiz-adv-x="333" d="M213 706l170 32q-103 -410 -134 -695l-154 -43q-4 0 -84 17q-32 6 -58 12l-32 7l87 176l116 -19z" />
<glyph unicode="k" horiz-adv-x="440" d="M80 706l172 32q-23 -88 -34 -139q87 76 159 146l126 -82l-197 -175l111 -407l-181 -96l-70 377q-31 -161 -49 -319l-159 -44z" />
<glyph unicode="l" horiz-adv-x="334" d="M83 706l172 32q-72 -277 -111 -511l176 27l-15 -186q-136 -12 -345 -69z" />
<glyph unicode="m" horiz-adv-x="643" d="M-88 -6q135 342 206 696l239 39l-34 -367l93 339l230 40q-41 -326 -41 -588q0 -52 1 -103l-205 -36l36 438l-131 -485l-110 -15l66 616l-142 -546z" />
<glyph unicode="n" horiz-adv-x="466" d="M92 703l173 35q-2 -31 -2 -88q0 -136 9 -239q5 -59 15 -95l68 390l172 32q-104 -401 -136 -695l-158 -44q-1 2 -13 35l-52 148q-13 36 -15 46q-21 -118 -33 -229l-160 -48z" />
<glyph unicode="o" d="M355 782q106 0 150 -118q23 -61 23 -134q0 -70 -21 -152q-37 -140 -128 -258q-111 -144 -235 -144q-107 0 -152 118q-22 58 -22 130q0 71 22 154q37 141 127 259q111 145 236 145zM319 534q-55 0 -112 -90q-46 -71 -64 -139q-9 -36 -9 -65q0 -41 20 -67q23 -29 64 -29 q56 0 101 59q36 47 52 111q19 75 8 148q-12 72 -60 72z" />
<glyph unicode="p" horiz-adv-x="368" d="M77 707q155 47 254 47q135 0 133 -94q-3 -189 -318 -391q-22 -122 -32 -226l-159 -44q3 22 24 134l44 237q59 327 54 337zM203 547q-7 -28 -13 -56l-11 -55q93 46 120 97q4 8 4 13q0 17 -25 17q-24 0 -75 -16z" />
<glyph unicode="q" horiz-adv-x="526" d="M360 782q105 0 150 -118q23 -61 23 -133q0 -176 -104 -348q5 -42 38 -172l-144 -91l-22 115q-80 -59 -152 -59q-107 0 -151 118q-23 60 -23 132q0 70 21 152q37 140 128 259q112 145 236 145zM246 319l143 75q3 52 -6 95q-15 64 -55 64q-54 0 -114 -99q-48 -79 -66 -149 q-9 -36 -9 -65q0 -41 20 -67q23 -29 64 -29q26 0 53 16z" />
<glyph unicode="r" horiz-adv-x="408" d="M76 707q157 47 257 47q135 0 134 -94q-1 -135 -170 -271q14 -38 116 -239q-52 -48 -157 -141l-107 276h-1v0q-24 -131 -36 -242l-158 -44q2 22 22 133zM202 549q-9 -34 -16 -68l-14 -68q35 18 69 47q39 34 52 65q5 9 5 17q0 22 -29 22q-23 0 -67 -15z" />
<glyph unicode="s" horiz-adv-x="445" d="M438 529q-32 -12 -76 -29l-75 -29q0 47 -26 47q-37 0 -74 -42q-26 -31 -22 -60q3 -19 38 -19q19 0 50 6q43 9 76 9q84 0 98 -58q4 -18 4 -38q0 -64 -48 -138q-62 -97 -174 -163q-59 -35 -116 -35q-52 0 -102 29q25 60 80 177q32 -22 68 -22q16 0 33 5q31 8 59 23 q40 22 40 45q0 25 -41 25q-28 0 -81.5 -11.5t-81.5 -11.5q-37 0 -57 14q-39 26 -32 81q13 111 143 257q133 150 229 157q93 6 93 -140q0 -35 -5 -79z" />
<glyph unicode="t" horiz-adv-x="365" d="M450 748l-6 -186q-70 -4 -133 -10q-66 -277 -89 -509l-169 -44l92 532q-27 -4 -54 -9l-53 -10l-12 187z" />
<glyph unicode="u" horiz-adv-x="435" d="M88 706l171 32q-69 -262 -102 -470l95 40l70 398l171 32q-104 -410 -135 -695l-160 -44l20 111q-84 -37 -254 -111z" />
<glyph unicode="v" horiz-adv-x="398" d="M496 738q-119 -326 -213 -699l-266 -48q25 142 31 346l6 348l200 45l-86 -638h1l146 613z" />
<glyph unicode="w" horiz-adv-x="590" d="M686 744q-135 -358 -201 -698l-224 -38l37 367l-93 -340l-213 -39q48 376 47 690l190 36l-39 -438l130 486l102 15l-69 -617l139 546z" />
<glyph unicode="x" horiz-adv-x="405" d="M366 70l-159 -99l-18 97q-9 49 -18 99l-48 -87q-24 -44 -47 -86l-174 15l226 357q-39 163 -81 291l141 106l55 -215l130 204l130 -46q-106 -152 -214 -335z" />
<glyph unicode="y" horiz-adv-x="387" d="M339 721l161 -28q-216 -379 -342 -686l-154 10l106 223l-84 402l195 90q-3 -46 -4 -115t7 -138z" />
<glyph unicode="z" horiz-adv-x="487" d="M510 544q-42 -42 -166 -180q-42 -45 -83 -90q-54 -59 -76 -92l236 16l-21 -187q-259 -7 -432 -31l1 185q42 49 167 183l173 185q-86 -7 -185 -23l7 189l405 32q-9 -62 -26 -187z" />
<glyph unicode="&#x2018;" horiz-adv-x="247" d="M324 807q-64 -174 -89 -316l-193 -30l97 332z" />
<glyph unicode="&#x2019;" horiz-adv-x="247" d="M324 807q-64 -174 -89 -316l-193 -30l97 332z" />
<glyph unicode="&#x201c;" d="M315 807q-64 -174 -89 -316l-193 -30l97 332zM571 807q-64 -174 -89 -316l-193 -30l97 332z" />
<glyph unicode="&#x201d;" d="M315 807q-64 -174 -89 -316l-193 -30l97 332zM571 807q-64 -174 -89 -316l-193 -30l97 332z" />
<glyph unicode="&#x25fc;" horiz-adv-x="765" d="M0 765h765v-765h-765v765z" />
<glyph horiz-adv-x="233" />
</font>
</defs>
</svg>
